<svg id="accepted" xmlns="http://www.w3.org/2000/svg" xmlns:xlink="http://www.w3.org/1999/xlink" width="95.163" height="95.163" viewBox="0 0 95.163 95.163">
    <defs>
        <linearGradient id="linear-gradient" x1=".5" y1="1" x2=".5" gradientUnits="objectBoundingBox">
            <stop offset="0" stop-color="#ff3440"/>
            <stop offset="1" stop-color="#6200ff"/>
        </linearGradient>
        <linearGradient id="linear-gradient-6" x1=".5" y1="1" x2=".5" y2="0" xlink:href="#linear-gradient"/>
        <linearGradient id="linear-gradient-9" x1=".5" y1="1" x2=".5" y2="0" xlink:href="#linear-gradient"/>
        <linearGradient id="linear-gradient-10" x1=".5" y1="1" x2=".5" y2="0" xlink:href="#linear-gradient"/>
        <style>
            .cls-1{fill:url(#linear-gradient)}.cls-4{fill:url(#linear-gradient-10)}
        </style>
    </defs>
    <g id="Grupo_546" data-name="Grupo 546">
        <path id="Trazado_519" data-name="Trazado 519" class="cls-1" d="M663.382 607.988h-91.764a1.7 1.7 0 0 0-1.7 1.7v71.372a1.7 1.7 0 0 0 1.7 1.7h25.49a1.7 1.7 0 0 0 1.7-1.7 18.693 18.693 0 0 1 37.385 0 1.7 1.7 0 0 0 1.7 1.7h25.49a1.7 1.7 0 0 0 1.7-1.7v-71.373a1.7 1.7 0 0 0-1.701-1.699zm-1.7 71.372h-22.158c-.017-.221-.034-.459-.068-.68-.017-.2-.034-.408-.068-.629-.034-.272-.085-.527-.136-.8a19.747 19.747 0 0 0-.459-2.039 16.224 16.224 0 0 0-.646-2.005c-.238-.629-.51-1.24-.8-1.835a14.743 14.743 0 0 0-.476-.9 9.116 9.116 0 0 0-.51-.884 23.247 23.247 0 0 0-1.75-2.481 22.971 22.971 0 0 0-1.207-1.36l-.612-.612a3.255 3.255 0 0 0-.255-.238l-.646-.595a.457.457 0 0 1-.136-.119c-.255-.2-.51-.408-.765-.595q-.382-.306-.816-.612c-.238-.17-.476-.34-.731-.493a21.957 21.957 0 0 0-5.387-2.515 10.75 10.75 0 0 0-1.054-.306 20.578 20.578 0 0 0-3.246-.578c-.289-.034-.578-.051-.85-.068a19.563 19.563 0 0 0-2.821 0c-.272.017-.561.034-.85.068a20.58 20.58 0 0 0-3.246.578 10.729 10.729 0 0 0-1.054.306 21.957 21.957 0 0 0-5.387 2.515c-.255.153-.493.323-.731.493q-.433.306-.816.612c-.255.187-.51.391-.748.595-.051.034-.1.085-.153.119l-.646.595c-.306.272-.595.561-.867.85-.425.442-.816.884-1.207 1.36a23.257 23.257 0 0 0-1.75 2.481 9.155 9.155 0 0 0-.51.884c-.17.289-.323.595-.476.9a22.642 22.642 0 0 0-.8 1.835 16.265 16.265 0 0 0-.646 2.005 19.763 19.763 0 0 0-.459 2.039c-.051.272-.1.527-.136.8-.034.221-.051.425-.068.629-.034.221-.051.459-.068.68h-22.149v-67.973h88.365z" transform="translate(-569.919 -607.988)"/>
    </g>
    <g id="Grupo_547" data-name="Grupo 547">
        <path id="Trazado_520" data-name="Trazado 520" class="cls-1" d="M663.382 624.981h-91.764a1.7 1.7 0 0 1-1.7-1.7v-13.594a1.7 1.7 0 0 1 1.7-1.7h91.764a1.7 1.7 0 0 1 1.7 1.7v13.595a1.7 1.7 0 0 1-1.7 1.699zm-90.065-3.4h88.365v-10.2h-88.364z" transform="translate(-569.919 -607.988)"/>
    </g>
    <g id="Grupo_548" data-name="Grupo 548" transform="translate(8.497 6.797)">
        <circle id="Elipse_32" data-name="Elipse 32" class="cls-1" cx="1.699" cy="1.699" r="1.699"/>
    </g>
    <g id="Grupo_549" data-name="Grupo 549" transform="translate(15.294 6.797)">
        <circle id="Elipse_33" data-name="Elipse 33" class="cls-1" cx="1.699" cy="1.699" r="1.699"/>
    </g>
    <g id="Grupo_550" data-name="Grupo 550" transform="translate(22.092 6.797)">
        <circle id="Elipse_34" data-name="Elipse 34" class="cls-1" cx="1.699" cy="1.699" r="1.699"/>
    </g>
    <g id="Grupo_551" data-name="Grupo 551" transform="translate(37.385 30.588)">
        <path id="Trazado_521" data-name="Trazado 521" d="M600.416 636.184a1.7 1.7 0 0 1-1.2-.5l-6.8-6.8a1.7 1.7 0 0 1 2.4-2.4l6.8 6.8a1.7 1.7 0 0 1-1.2 2.9z" transform="translate(-591.919 -625.988)" style="fill:url(#linear-gradient-6)"/>
    </g>
    <g id="Grupo_552" data-name="Grupo 552" transform="translate(44.182 23.79)">
        <path id="Trazado_522" data-name="Trazado 522" class="cls-1" d="M597.618 638.981a1.7 1.7 0 0 1-1.2-2.9l13.595-13.595a1.7 1.7 0 0 1 2.4 2.4l-13.593 13.598a1.694 1.694 0 0 1-1.202.497z" transform="translate(-595.919 -621.988)"/>
    </g>
    <g id="Grupo_553" data-name="Grupo 553" transform="translate(25.49 50.98)">
        <path id="Trazado_523" data-name="Trazado 523" class="cls-1" d="M629.034 658.38c-.017-.221-.034-.459-.068-.68-.017-.2-.034-.408-.068-.629-.034-.272-.085-.527-.136-.8a19.75 19.75 0 0 0-.459-2.039 16.222 16.222 0 0 0-.646-2.005c-.238-.629-.51-1.24-.8-1.835a14.743 14.743 0 0 0-.476-.9 9.141 9.141 0 0 0-.51-.884 19.208 19.208 0 0 0-1.75-2.481 22.971 22.971 0 0 0-1.207-1.36l-.612-.612a3.29 3.29 0 0 0-.255-.238l-.646-.595a.457.457 0 0 1-.136-.119c-.255-.2-.51-.408-.765-.595q-.382-.306-.816-.612c-.238-.17-.476-.34-.731-.493a21.962 21.962 0 0 0-5.387-2.515 10.735 10.735 0 0 0-1.054-.306 20.583 20.583 0 0 0-3.246-.578c-.289-.034-.578-.051-.85-.068a19.563 19.563 0 0 0-2.822 0c-.272.017-.561.034-.85.068a20.584 20.584 0 0 0-3.246.578 10.74 10.74 0 0 0-1.054.306 21.963 21.963 0 0 0-5.387 2.515c-.255.153-.493.323-.731.493q-.433.306-.816.612c-.255.187-.51.391-.748.595-.051.034-.1.085-.153.119l-.646.595c-.306.272-.595.561-.866.85-.425.442-.816.884-1.207 1.36a19.227 19.227 0 0 0-1.75 2.481 9.165 9.165 0 0 0-.51.884c-.17.289-.323.595-.476.9a22.642 22.642 0 0 0-.8 1.835 16.232 16.232 0 0 0-.646 2.005 19.734 19.734 0 0 0-.459 2.039c-.051.272-.1.527-.136.8-.034.221-.051.425-.068.629-.034.221-.051.459-.068.68a18.694 18.694 0 0 0-.068 1.7 14.06 14.06 0 0 0 .085 1.7 20.506 20.506 0 0 0 .51 3.4 22.091 22.091 0 0 0 43.52-3.4c.051-.561.068-1.122.068-1.7s-.007-1.139-.058-1.7zm-22.024 20.392a18.7 18.7 0 0 1-17.979-13.595 18.029 18.029 0 0 1-.714-5.1 18.693 18.693 0 1 1 18.693 18.693z" transform="translate(-584.919 -637.988)"/>
    </g>
    <path id="Unión_4" data-name="Unión 4" d="M10.2 25.49v-1.7H6.8v1.7a1.7 1.7 0 0 1-3.4 0v-1.7H1.7a1.7 1.7 0 0 1 0-3.4V6.8a1.7 1.7 0 0 1 0-3.4h1.7V1.7a1.7 1.7 0 1 1 3.4 0v1.7h3.4V1.7a1.7 1.7 0 1 1 3.4 0v1.748a5.859 5.859 0 0 1 5.1 5.8v.192a5.823 5.823 0 0 1-1.073 3.376 5.947 5.947 0 0 1-3.176 10.975h-.849v1.7a1.7 1.7 0 0 1-3.4 0zm4.248-5.1a2.549 2.549 0 0 0 0-5.1H5.1v5.1zm-1.534-8.5a2.457 2.457 0 0 0 2.379-2.45v-.189A2.455 2.455 0 0 0 12.839 6.8H5.1v5.1z" transform="translate(37.386 59.476)" style="stroke:transparent;stroke-miterlimit:10;fill:url(#linear-gradient-9)"/>
    <g id="Grupo_559" data-name="Grupo 559" transform="translate(10.196 22.091)">
        <path id="Trazado_529" data-name="Trazado 529" class="cls-4" d="M589.514 624.386h-11.9a1.7 1.7 0 1 1 0-3.4h11.9a1.7 1.7 0 0 1 0 3.4z" transform="translate(-575.919 -620.988)"/>
    </g>
    <g id="Grupo_560" data-name="Grupo 560" transform="translate(10.196 28.889)">
        <path id="Trazado_530" data-name="Trazado 530" class="cls-4" d="M589.514 628.387h-11.9a1.7 1.7 0 1 1 0-3.4h11.9a1.7 1.7 0 0 1 0 3.4z" transform="translate(-575.919 -624.988)"/>
    </g>
</svg>
