<svg id="global" xmlns="http://www.w3.org/2000/svg" xmlns:xlink="http://www.w3.org/1999/xlink" width="111.282" height="82.564" viewBox="0 0 111.282 82.564">
    <defs>
        <linearGradient id="linear-gradient" x1=".5" y1="1" x2=".5" gradientUnits="objectBoundingBox">
            <stop offset="0" stop-color="#ff3440"/>
            <stop offset="1" stop-color="#6200ff"/>
        </linearGradient>
        <linearGradient id="linear-gradient-2" x1=".5" y1="1" x2=".5" y2="0" xlink:href="#linear-gradient"/>
        <linearGradient id="linear-gradient-5" x1=".5" y1="1" x2=".5" y2="0" xlink:href="#linear-gradient"/>
        <style>
            .cls-1{fill:url(#linear-gradient)}
        </style>
    </defs>
    <path id="Trazado_742" data-name="Trazado 742" class="cls-1" d="M158.593 287.978c.915-.18 1.777-.377 2.567-.556a40.706 40.706 0 0 0 .323-5.151c0-1.149-.072-2.315-.162-3.446-.018-.341-.072-.682-.108-1.005-.018-.233-.054-.467-.072-.7-.072-.61-.162-1.2-.269-1.795-.054-.341-.126-.682-.18-1.023-.072-.341-.144-.682-.215-1.005a27.312 27.312 0 0 0-.431-1.741c-.054-.2-.09-.395-.144-.592a41.321 41.321 0 0 0-1.095-3.285c-.072-.215-.179-.449-.269-.664a36.489 36.489 0 0 0-1.059-2.423c-.18-.359-.359-.736-.538-1.095a37.471 37.471 0 0 0-1.023-1.849c-.251-.431-.485-.844-.736-1.256-.054-.072-.09-.162-.144-.233-.431-.682-.9-1.364-1.382-2.01a24.116 24.116 0 0 0-.826-1.095c-.018-.018-.036-.054-.054-.072-.52-.7-1.113-1.418-1.723-2.1-.036-.036-.072-.09-.108-.126q-1.1-1.239-2.315-2.369a12.103 12.103 0 0 0-.485-.467 40.38 40.38 0 0 0-2.513-2.136c-.036-.036-.072-.054-.108-.09s-.09-.054-.126-.09a41.102 41.102 0 0 0-2.926-2.082.63.63 0 0 1-.144-.09 9.826 9.826 0 0 0-.467-.269 29.946 29.946 0 0 0-1.633-.969c-.251-.126-.5-.269-.772-.413a35.255 35.255 0 0 0-1.849-.915c-.162-.072-.323-.162-.485-.233-.772-.359-1.562-.664-2.351-.969l-.754-.269q-.862-.323-1.777-.592c-.269-.072-.538-.162-.808-.233a32.523 32.523 0 0 0-2.19-.556 3.228 3.228 0 0 0-.341-.09 40.996 40.996 0 0 0-2.567-.467l-.754-.108c-.646-.072-1.292-.144-1.956-.2-.251-.018-.521-.054-.772-.072a43.63 43.63 0 0 0-2.656-.09A41.3 41.3 0 0 0 94.481 250a40.549 40.549 0 0 0-5.026 4.756 43.848 43.848 0 0 0-2.585 3.195 40.738 40.738 0 0 0-6.946 15.349 34.812 34.812 0 0 0-.682 3.823 41.228 41.228 0 0 0 0 10.3 39.78 39.78 0 0 0 .664 3.823 41 41 0 0 0 5.474 13.138q.646 1.023 1.346 1.992c.287.413.592.808.9 1.2a30.527 30.527 0 0 0 1.831 2.208 40.3 40.3 0 0 0 5.438 5.062c.072.054.162.126.233.18a37.483 37.483 0 0 0 2.944 2.064 41.155 41.155 0 0 0 15.452 5.91.525.525 0 0 0 .162.036 41.148 41.148 0 0 0 30.136-6.928 40.942 40.942 0 0 0 7.126-6.318 41.94 41.94 0 0 0 2.638-3.267 40.723 40.723 0 0 0 6.892-15.274c-.377.09-.754.18-1.149.251-.862.179-1.777.359-2.728.52a37.32 37.32 0 0 1-7.449 14.305c-.305.359-.574.736-.879 1.077-.269.305-.556.592-.826.879a37.612 37.612 0 0 1-46.092 6.623 34.731 34.731 0 0 1-3.249-2.118 37.4 37.4 0 0 1-5.654-5.026c-.108-.126-.215-.233-.323-.359-.251-.269-.449-.556-.682-.844a37.341 37.341 0 0 1-7.647-14.541 34.691 34.691 0 0 1-.808-3.787 36.568 36.568 0 0 1-.485-5.959 37.455 37.455 0 0 1 8.777-24.087c.287-.341.538-.7.844-1.041s.628-.682.951-1.005a37.647 37.647 0 0 1 27.12-11.559c.844 0 1.669.036 2.495.09l.7.054c.664.054 1.31.144 1.956.215.2.036.395.054.592.09.79.126 1.579.269 2.369.449a6.439 6.439 0 0 1 .628.144c.592.144 1.185.305 1.777.467.251.09.521.161.79.233.664.215 1.346.449 1.992.7.2.072.395.144.592.233.628.251 1.238.5 1.849.79.287.126.556.269.844.413.467.215.933.467 1.382.718.269.144.556.287.808.431a33.19 33.19 0 0 1 1.885 1.149c.323.215.628.431.951.664.287.2.592.413.879.628l.754.592c.359.269.7.556 1.059.844.2.18.413.359.61.538.395.341.79.7 1.167 1.077.144.144.305.269.449.413a66.166 66.166 0 0 1 1.544 1.633l.018.018c.682.754 1.31 1.544 1.921 2.351a6.375 6.375 0 0 1 .413.556 40.483 40.483 0 0 1 1.6 2.351l.323.538q.781 1.292 1.454 2.638c.072.161.144.305.215.449.359.79.718 1.579 1.023 2.387a8.4 8.4 0 0 1 .323.862c.287.754.538 1.526.772 2.315.072.2.144.413.2.61.269.987.5 1.974.682 2.979.054.215.072.449.126.682.126.808.251 1.615.323 2.441.036.269.072.556.09.844a35.84 35.84 0 0 1 .144 3.105 36.568 36.568 0 0 1-.485 5.959c.408-.089.803-.161 1.18-.25z" transform="translate(-64.56 -240.988)"/>
    <path id="Trazado_743" data-name="Trazado 743" d="M124.191 267.414c-.377.09-.772.162-1.185.251a33.817 33.817 0 0 1-.808 3.787 76.588 76.588 0 0 0 2.728-.52c.395-.072.772-.162 1.149-.251a34.071 34.071 0 0 0 .682-3.823c-.789.179-1.65.377-2.566.556z" transform="translate(-30.158 -220.425)" style="fill:url(#linear-gradient-2)"/>
    <path id="Trazado_744" data-name="Trazado 744" class="cls-1" d="M129.357 259.863c-.2.305-.413.646-.628.969-.5.754-1.023 1.508-1.579 2.3l-.108.161a172.836 172.836 0 0 1-12.672 15.9 1.789 1.789 0 0 1-2.531.162 1.792 1.792 0 0 1-.162-2.531 168.37 168.37 0 0 0 12.42-15.579c.323-.467.628-.915.933-1.364.251-.341.467-.682.7-1.023.5-.772.951-1.49 1.364-2.172 4.882-7.951 4.756-10.985 4.236-11.505s-3.59-.664-11.487 4.218a39.394 39.394 0 0 0-3.195-2.262c8.938-5.69 14.574-7.162 17.213-4.487 2.675 2.638 1.185 8.274-4.504 17.213z" transform="translate(-38.877 -240.693)"/>
    <g id="Grupo_777" data-name="Grupo 777" transform="translate(37.692 28.718)">
        <path id="Trazado_745" data-name="Trazado 745" class="cls-1" d="M131.406 266.644a21.538 21.538 0 1 0 0 23.764 21.46 21.46 0 0 0 0-23.764zm-17.949 29.831a17.949 17.949 0 1 1 17.949-17.949 17.978 17.978 0 0 1-17.949 17.949z" transform="translate(-91.919 -256.988)"/>
    </g>
    <path id="Unión_4" data-name="Unión 4" d="M8.975 23.333v-1.795h-1.8v1.795a1.795 1.795 0 1 1-3.589 0v-1.795H1.795a1.795 1.795 0 0 1 0-3.589V7.179a1.795 1.795 0 0 1 0-3.589h1.794V1.795a1.795 1.795 0 1 1 3.589 0v1.794h1.8V1.795a1.795 1.795 0 0 1 3.589 0V3.9a5.383 5.383 0 0 1 2.9 7.719 5.383 5.383 0 0 1-2.9 9.922v1.795a1.795 1.795 0 1 1-3.589 0zm3.589-5.384a1.795 1.795 0 0 0 0-3.589h-7.18v3.589zM10.77 10.77a1.8 1.8 0 0 0 0-3.591H5.384v3.591z" transform="translate(50.256 37.692)" style="stroke:transparent;stroke-miterlimit:10;fill:url(#linear-gradient-5)"/>
    <path id="Trazado_751" data-name="Trazado 751" class="cls-1" d="M112.237 278.355a1.817 1.817 0 0 1-1.795 1.687h-.108a176.588 176.588 0 0 1-19.977-2.3c-.072-.018-.126-.018-.2-.036a83.745 83.745 0 0 1-2.746-.52c-.395-.072-.772-.162-1.149-.251-10.321-2.279-15.346-5.223-15.346-8.974s5.026-6.695 15.364-8.974a34.816 34.816 0 0 0-.682 3.823c-9.01 2.172-11.092 4.415-11.092 5.151s2.082 2.979 11.092 5.151c.79.18 1.633.377 2.549.556.395.09.79.161 1.2.251.538.108 1.077.2 1.633.305a183 183 0 0 0 19.564 2.226 1.815 1.815 0 0 1 1.693 1.905z" transform="translate(-70.919 -226.68)"/>
    <path id="Trazado_752" data-name="Trazado 752" class="cls-1" d="M111.261 279.253a153.767 153.767 0 0 1-10.033 7.646l-.162.108a66.406 66.406 0 0 1-2.279 1.544c-.341.215-.664.431-1.005.646-6.049 3.877-10.59 5.8-13.713 5.8a4.7 4.7 0 0 1-3.5-1.292c-2.674-2.638-1.185-8.274 4.523-17.213q.646 1.023 1.346 1.992c.287.413.592.808.9 1.2-4.882 7.933-4.756 10.967-4.236 11.487s3.59.664 11.505-4.218c.7-.413 1.436-.9 2.208-1.4.341-.215.664-.431 1.005-.664.449-.305.9-.61 1.364-.933 3.159-2.208 6.462-4.72 9.818-7.467a1.786 1.786 0 1 1 2.262 2.764z" transform="translate(-64.271 -213.094)"/>
    <path id="Trazado_753" data-name="Trazado 753" class="cls-1" d="M148.033 267.962c0 3.751-5.026 6.695-15.364 8.974-.377.09-.754.18-1.149.251-.862.179-1.777.359-2.728.52-.054.018-.126.018-.179.036-3.967.7-8.256 1.274-12.744 1.705h-.162a1.8 1.8 0 0 1-.162-3.59c4.379-.395 8.562-.951 12.438-1.633.538-.108 1.095-.2 1.615-.305.413-.09.808-.162 1.185-.251.915-.18 1.777-.377 2.567-.556 9.01-2.172 11.092-4.415 11.092-5.151s-2.082-2.979-11.11-5.151c-.072-.61-.162-1.2-.269-1.795-.054-.341-.126-.682-.18-1.023-.072-.341-.144-.682-.215-1.005 10.339 2.279 15.365 5.223 15.365 8.974z" transform="translate(-36.751 -226.68)"/>
</svg>
