<svg id="smartphone" xmlns="http://www.w3.org/2000/svg" xmlns:xlink="http://www.w3.org/1999/xlink" width="95.162" height="95.162" viewBox="0 0 95.162 95.162">
    <defs>
        <linearGradient id="linear-gradient" x1=".5" y1="1" x2=".5" gradientUnits="objectBoundingBox">
            <stop offset="0" stop-color="#ff3440"/>
            <stop offset="1" stop-color="#6200ff"/>
        </linearGradient>
        <linearGradient id="linear-gradient-5" x1=".5" y1="1" x2=".5" y2="0" xlink:href="#linear-gradient"/>
        <style>
            .cls-1{fill:url(#linear-gradient)}
        </style>
    </defs>
    <g id="Grupo_624" data-name="Grupo 624">
        <path id="Trazado_591" data-name="Trazado 591" class="cls-1" d="M379.7 483.988h-50.98a6.8 6.8 0 0 0-6.8 6.8v81.568a6.8 6.8 0 0 0 6.8 6.8h50.98a6.8 6.8 0 0 0 6.8-6.8v-13.8a1.69 1.69 0 0 0-1.478-1.682 24.919 24.919 0 0 1-6.389-1.682 25.489 25.489 0 0 1 .017-47.258.1.1 0 0 1 .068-.017 24.406 24.406 0 0 1 6.3-1.631 1.69 1.69 0 0 0 1.478-1.682v-13.819a6.8 6.8 0 0 0-6.796-6.797zm3.144 19.2-.306.051q-.79.153-1.58.357c-.034.017-.085.017-.136.034-.2.051-.374.1-.561.153s-.374.119-.561.17a3.1 3.1 0 0 0-.425.136c-.085.034-.17.051-.255.085-.561.187-1.1.391-1.648.612-.357.153-.714.289-1.071.442v.017c-.646.289-1.274.612-1.9.935h-.017q-.918.51-1.784 1.071a.088.088 0 0 0-.068.034c-.561.357-1.122.748-1.648 1.139-.051.034-.085.068-.119.085-.51.391-1 .8-1.5 1.206-.51.442-1.02.918-1.5 1.393-.459.459-.884.918-1.308 1.393a1.109 1.109 0 0 0-.136.153 21.69 21.69 0 0 0-1.241 1.546c-.408.544-.8 1.088-1.173 1.665-.187.289-.357.578-.544.867-.17.289-.34.578-.493.884a26.954 26.954 0 0 0-2.124 4.928 6.1 6.1 0 0 0-.238.731 28.54 28.54 0 0 0-1.206 8.293 29.038 29.038 0 0 0 1.988 10.6c.119.306.255.612.374.9.374.85.765 1.665 1.207 2.447.136.255.289.51.425.765.221.374.459.748.7 1.1a17.535 17.535 0 0 0 1.071 1.512c0 .034.017.051.051.068.357.51.765 1 1.173 1.479q.765.866 1.58 1.682c.391.391.8.765 1.223 1.139.527.459 1.088.918 1.665 1.342a5.206 5.206 0 0 0 .493.357c.408.306.833.595 1.257.867a.377.377 0 0 1 .085.051c.476.306.969.612 1.478.884.714.391 1.461.765 2.226 1.122.357.153.7.306 1.054.442.561.238 1.139.442 1.733.646a4.29 4.29 0 0 0 .612.2c.238.085.476.153.731.221s.493.136.748.2c.51.119 1.02.238 1.529.323a3.2 3.2 0 0 0 .391.085v12.337a3.409 3.409 0 0 1-3.4 3.4h-50.98a3.409 3.409 0 0 1-3.4-3.4v-81.552a3.409 3.409 0 0 1 3.4-3.4H379.7a3.409 3.409 0 0 1 3.4 3.4v12.354z" transform="translate(-321.919 -483.988)"/>
    </g>
    <g id="Grupo_625" data-name="Grupo 625" transform="translate(6.797 6.797)">
        <path id="Trazado_592" data-name="Trazado 592" class="cls-1" d="M375.2 487.988H364a7.586 7.586 0 0 0-5.3 2.192 4.122 4.122 0 0 1-2.889 1.206h-8.8a4.122 4.122 0 0 1-2.889-1.206 7.586 7.586 0 0 0-5.3-2.192h-11.2a1.7 1.7 0 0 0-1.7 1.7v76.47a1.7 1.7 0 0 0 1.7 1.7H375.2a1.7 1.7 0 0 0 1.7-1.7v-12.185a1.716 1.716 0 0 0-1.071-1.58 25.489 25.489 0 0 1 .017-47.258.1.1 0 0 1 .068-.017 1.727 1.727 0 0 0 .986-1.546v-13.885a1.7 1.7 0 0 0-1.7-1.699zm-1.7 14.461c-.646.289-1.274.612-1.9.935h-.017q-.918.51-1.784 1.071a.088.088 0 0 0-.068.034c-.561.357-1.122.748-1.648 1.139-.051.034-.085.068-.119.085-.51.391-1 .8-1.5 1.206-.51.442-1.02.918-1.5 1.393-.459.459-.884.918-1.308 1.393a1.1 1.1 0 0 0-.136.153 21.69 21.69 0 0 0-1.241 1.546c-.408.544-.8 1.088-1.172 1.665-.187.289-.357.578-.544.867-.17.289-.34.578-.493.884a26.952 26.952 0 0 0-2.124 4.928 6.1 6.1 0 0 0-.238.731 28.54 28.54 0 0 0-1.206 8.293 29.038 29.038 0 0 0 1.988 10.6c.119.306.255.612.374.9.374.85.765 1.665 1.207 2.447.136.255.289.51.425.765.221.374.459.748.7 1.1a17.528 17.528 0 0 0 1.071 1.512c0 .034.017.051.051.068.357.51.765 1 1.173 1.478q.765.866 1.58 1.682c.391.391.8.765 1.223 1.139.527.459 1.088.918 1.665 1.342a5.191 5.191 0 0 0 .493.357c.408.306.833.595 1.258.867a.377.377 0 0 1 .085.051c.476.306.969.612 1.478.884.714.391 1.461.765 2.226 1.122v9.363h-44.181v-73.062h9.5a4.121 4.121 0 0 1 2.889 1.207 7.587 7.587 0 0 0 5.3 2.192h8.8a7.587 7.587 0 0 0 5.3-2.192 4.121 4.121 0 0 1 2.893-1.207h9.5z" transform="translate(-325.919 -487.988)"/>
    </g>
    <g id="Grupo_626" data-name="Grupo 626" transform="translate(45.882 27.189)">
        <path id="Trazado_593" data-name="Trazado 593" class="cls-1" d="M381.206 503.828a20.17 20.17 0 0 0-11.9-3.84 20.392 20.392 0 1 0 0 40.784 20.384 20.384 0 0 0 11.9-36.943zm0 28.685a16.988 16.988 0 1 1 5.1-12.133 16.9 16.9 0 0 1-5.1 12.133z" transform="translate(-348.919 -499.988)"/>
    </g>
    <g id="Grupo_627" data-name="Grupo 627" transform="translate(37.385 18.693)">
        <path id="Trazado_594" data-name="Trazado 594" class="cls-1" d="M384.7 497.571a28.43 28.43 0 0 0-11.9-2.583c-.578 0-1.155.017-1.7.068a16.843 16.843 0 0 0-1.9.17c-.51.051-1 .136-1.5.221l-.255.051-.306.051q-.79.153-1.58.357c-.034.017-.085.017-.136.034-.2.051-.374.1-.561.153s-.374.119-.561.187a3.968 3.968 0 0 0-.425.119c-.085.034-.17.051-.255.085-.561.187-1.1.391-1.648.612-.357.153-.714.289-1.071.442v.017c-.646.289-1.274.612-1.9.935h-.017q-.918.51-1.784 1.071a.088.088 0 0 0-.068.034c-.561.357-1.122.748-1.648 1.139-.051.034-.085.068-.119.085-.51.391-1 .8-1.5 1.207-.51.442-1.02.918-1.5 1.393a34.09 34.09 0 0 0-1.309 1.393 1.107 1.107 0 0 0-.136.153 21.69 21.69 0 0 0-1.241 1.546c-.408.544-.8 1.088-1.173 1.665-.187.289-.357.578-.544.867-.17.289-.34.578-.493.884a26.947 26.947 0 0 0-2.124 4.928 6.1 6.1 0 0 0-.238.731 28.54 28.54 0 0 0-1.206 8.293 29.038 29.038 0 0 0 1.988 10.6c.119.306.255.612.374.9a27.282 27.282 0 0 0 1.207 2.447c.136.255.289.51.425.765.221.374.459.748.7 1.1a17.525 17.525 0 0 0 1.071 1.512c0 .034.017.051.051.068.357.51.765 1 1.173 1.478q.765.867 1.58 1.682a26.603 26.603 0 0 0 2.888 2.48 5.19 5.19 0 0 0 .493.357c.408.306.833.595 1.257.867a.369.369 0 0 1 .085.051c.476.306.969.612 1.478.884.714.391 1.461.765 2.226 1.122.357.153.7.306 1.054.442.561.238 1.139.442 1.733.646.2.068.408.136.612.187.238.085.476.17.731.238s.493.136.748.2c.51.119 1.02.238 1.529.323q.918.178 1.886.306c.646.085 1.257.136 1.9.17.561.034 1.122.051 1.7.051a28.43 28.43 0 0 0 11.9-2.583 28.857 28.857 0 0 0 0-52.611zm0 48.839a25.275 25.275 0 0 1-11.9 2.957 27.994 27.994 0 0 1-3.178-.187 24.927 24.927 0 0 1-6.39-1.682 25.489 25.489 0 0 1 .017-47.258.1.1 0 0 1 .068-.017 24.406 24.406 0 0 1 6.3-1.631 23.781 23.781 0 0 1 3.178-.2 25.483 25.483 0 0 1 11.9 48.023z" transform="translate(-343.919 -494.988)"/>
    </g>
    <path id="Unión_2" data-name="Unión 2" d="M8.5 22.091v-1.7H6.8v1.7a1.7 1.7 0 1 1-3.4 0v-1.7H1.7a1.7 1.7 0 0 1 0-3.4V6.8a1.7 1.7 0 1 1 0-3.4h1.7V1.7a1.7 1.7 0 0 1 3.4 0v1.7h1.7V1.7a1.7 1.7 0 0 1 3.4 0v1.99A5.1 5.1 0 0 1 14.637 11a5.1 5.1 0 0 1-2.737 9.391v1.7a1.7 1.7 0 1 1-3.4 0zm3.4-5.1a1.7 1.7 0 1 0 0-3.4H5.1v3.4zm-1.7-6.8a1.7 1.7 0 0 0 0-3.4H5.1v3.4z" transform="translate(57.777 35.686)" style="stroke:transparent;stroke-miterlimit:10;fill:url(#linear-gradient-5)"/>
</svg>
